<?xml version="1.0" encoding="utf-8"?>
<!-- Generator: Adobe Illustrator 16.0.0, SVG Export Plug-In . SVG Version: 6.00 Build 0)  -->
<!DOCTYPE svg PUBLIC "-//W3C//DTD SVG 1.1//EN" "http://www.w3.org/Graphics/SVG/1.1/DTD/svg11.dtd">
<svg version="1.1" id="Layer_1" xmlns="http://www.w3.org/2000/svg" xmlns:xlink="http://www.w3.org/1999/xlink" x="0px" y="0px"
	 width="960px" height="560px" viewBox="0 0 960 560" enable-background="new 0 0 960 560" xml:space="preserve">
<g>
	<path fill-rule="evenodd" clip-rule="evenodd" fill="#2D4B97" d="M500.19,129.313c-5.093,4.961-10.174,9.934-15.28,14.88
		c-5.491,5.319-10.174,12.596-16.748,15.354c-6.399,2.685-14.744,0.799-22.234,0.803c-40.991,0.023-81.983,0.008-122.975,0.015
		c-10.95,0.001-14.351,3.4-14.351,14.306c-0.002,86.315-0.002,172.631,0,258.948c0,11.002,3.219,14.174,14.373,14.174
		c86.815,0.002,173.631,0.002,260.446,0c9.233,0,12.599-3.324,12.603-12.617c0.02-47.324,0.055-94.646-0.072-141.971
		c-0.012-3.998,1.145-6.826,4.009-9.596c9.21-8.904,18.164-18.073,28.079-28.004c0.266,2.42,0.541,3.759,0.542,5.098
		c0.021,65.319,0.046,130.639-0.007,195.959c-0.01,13.51-10.238,23.676-23.768,23.68c-101.646,0.033-203.292,0.035-304.937-0.002
		c-13.53-0.004-23.809-10.209-23.813-23.66c-0.039-101.813-0.039-203.625,0-305.437c0.005-13.108,10.004-23.391,22.95-23.406
		c65.819-0.08,131.639-0.039,197.459-0.027c0.978,0,1.954,0.166,2.932,0.255C499.663,128.479,499.927,128.896,500.19,129.313z"/>
	<path fill-rule="evenodd" clip-rule="evenodd" fill="#2D4B97" d="M558.142,142.578c18.328,18.429,36.27,36.468,54.56,54.858
		c-0.767,0.823-1.82,2.048-2.97,3.175c-56.528,55.412-113.043,110.838-169.68,166.137c-2.22,2.168-5.458,3.828-8.498,4.537
		c-18.466,4.307-37.01,8.271-55.534,12.328c-1.072,0.236-2.188,0.273-4.027,0.492c1.882-8.791,3.61-17.018,5.411-25.23
		c2.529-11.535,4.991-23.088,7.768-34.564c0.63-2.604,1.939-5.402,3.774-7.301c55.477-57.394,111.059-114.686,166.63-171.99
		C556.369,144.201,557.229,143.444,558.142,142.578z"/>
	<path fill-rule="evenodd" clip-rule="evenodd" fill="#2D4B97" d="M624.119,188.468c-18.832-18.946-37.081-37.308-55.75-56.09
		c0.887-1.002,2.207-2.653,3.689-4.145c8.564-8.616,17.089-17.273,25.775-25.765c9.454-9.24,19.42-9.086,28.867,0.294
		c9.093,9.029,18.154,18.09,27.184,27.182c9.066,9.129,9.158,19.383,0.161,28.514C644.132,168.519,634.104,178.466,624.119,188.468z
		"/>
</g>
</svg>
