<?xml version="1.0" encoding="utf-8"?>
<!-- Generator: Adobe Illustrator 16.0.0, SVG Export Plug-In . SVG Version: 6.00 Build 0)  -->
<!DOCTYPE svg PUBLIC "-//W3C//DTD SVG 1.1//EN" "http://www.w3.org/Graphics/SVG/1.1/DTD/svg11.dtd">
<svg version="1.1" id="Layer_1" xmlns="http://www.w3.org/2000/svg" xmlns:xlink="http://www.w3.org/1999/xlink" x="0px" y="0px"
	 width="960px" height="560px" viewBox="0 0 960 560" enable-background="new 0 0 960 560" xml:space="preserve">
<g>
	<path fill-rule="evenodd" clip-rule="evenodd" fill="#243676" d="M671.396,354.977c-0.563-1.503-0.92-3.124-1.727-4.48
		c-4.716-7.956-9.677-15.769-14.283-23.787c-5.136-8.935-9.818-18.134-14.993-27.046c-5.871-10.112-12.092-20.02-18.114-30.047
		c-2.826-4.706-5.563-9.469-8.303-14.228c-2.002-3.477-5.018-4.426-8.902-4.349c-14.216,0.283-28.438,0.414-42.658,0.444
		c-9.845,0.021-9.911-0.163-9.904-10.027c0.003-2.167-0.007-4.335-0.003-6.502c0-7.118,0.685-7.802,7.981-7.818
		c7.316-0.017,14.63,0.043,21.946-0.014c12.998-0.103,25.993-0.342,38.992-0.354c3.53-0.003,6.155,1.468,8.101,4.964
		c5.817,10.472,12.148,20.658,18.188,31.007c4.073,6.969,7.972,14.044,11.992,21.046c4.223,7.356,8.484,14.689,12.773,22.003
		c0.277,0.477,0.946,0.725,1.433,1.078c0.212-0.599,0.586-1.194,0.603-1.8c0.06-1.893-0.036-3.792-0.036-5.688
		c-0.011-21.675-0.023-43.354-0.014-65.03c0-7.27,0.708-8.023,7.84-7.965c27.959,0.227,55.918,0.534,83.877,0.716
		c5.411,0.035,10.821-0.457,16.235-0.516c4.996-0.057,6.185,1.214,6.304,6.263c0.099,4.197,0.129,8.397,0.191,12.593
		c0.066,4.294-1.38,6.008-5.768,6.031c-7.564,0.038-15.14,0-22.694-0.35c-7.452-0.346-8.504,0.587-8.494,7.938
		c0.033,31.972-0.027,63.944-0.05,95.918c-8.134,0-16.265,0-24.398,0c0.01-32.391,0-64.777,0.043-97.167
		c0.007-5.842-0.91-6.881-6.801-6.769c-5.143,0.098-10.284,0.447-15.421,0.381c-4.745-0.06-5.536,0.442-5.536,5.162
		c0.007,32.796,0.04,65.596,0.066,98.394C690.372,354.977,680.885,354.977,671.396,354.977z"/>
	<path fill-rule="evenodd" clip-rule="evenodd" fill="#243676" d="M340.402,354.977c-3.086-5.626-6.063-11.314-9.289-16.86
		c-2.77-4.759-5.69-9.444-8.839-13.958c-0.847-1.215-2.69-2.147-4.208-2.393c-2.512-0.407-5.134-0.08-7.704-0.186
		c-4.388-0.186-6.083-3.26-4.3-7.247c2.184-4.881,3.941-9.964,6.297-14.759c0.759-1.545,2.661-3.024,4.335-3.501
		c2.271-0.648,4.83-0.421,7.262-0.371c14.602,0.308,25.333-13.19,21.44-27.879c-1.78-6.721-6.466-11.784-13.765-14.211
		c-8.081-2.688-16.238-2.432-24.451-2.098c-5.846,0.236-9.906-0.682-14.241-6.208c-2.963-3.777-6.02-7.59-8.875-11.506
		c-0.915-1.257-1.935-3.357-1.466-4.462c0.528-1.246,2.589-2.217,4.146-2.55c1.643-0.351,3.476,0.323,5.227,0.328
		c9.063,0.026,18.127-0.1,27.189-0.015c10.497,0.098,20.439,1.153,30.021,6.98c8.547,5.199,14.455,12.373,18.051,20.681
		c4.256,9.829,6.384,20.249,2.287,31.732c-3.908,10.95-9.769,19.454-18.819,26.238c-4.17,3.127-4.08,1.618-0.736,7.929
		c0.62,1.172,1.259,2.376,1.942,3.534c2.814,4.769,5.571,6.642,10.942,6.525c22.467-0.486,44.945-0.84,67.417-0.817
		c28.571,0.027,57.143,0.59,85.718,0.702c30.993,0.122,61.99-0.004,92.987-0.017c1.086,0,2.174-0.047,3.25,0.043
		c4.52,0.37,6.585,2.009,6.73,6.519c0.192,5.931-0.248,11.884-0.417,17.827C525.823,354.977,433.113,354.977,340.402,354.977z"/>
	<path fill-rule="evenodd" clip-rule="evenodd" fill="#243676" d="M202.962,354.977c0.056-14.901,0.146-29.803,0.161-44.704
		c0.024-24.931,0-49.861-0.002-74.79c0-7.997,0.975-8.679,8.917-8.473c10.291,0.268,20.594,0.001,30.889,0.17
		c6.762,0.112,13.664-0.159,20.244,1.097c7.897,1.509,14.509,6.04,20.388,11.7c5.665,5.455,10.3,11.671,12.679,18.988
		c1.626,5,1.398,10.652,1.671,16.03c0.155,3.084,0.131,6.331-0.665,9.276c-1.137,4.209-2.623,8.444-4.719,12.25
		c-5.247,9.527-13.159,16.523-23.021,20.878c-4.854,2.145-10.293,3.313-15.588,4.018c-5.06,0.675-10.28,0.291-15.424,0.165
		c-4.41-0.105-5.71-1.311-4.631-5.384c1.43-5.404,3.563-10.643,5.646-15.851c1.486-3.713,4.464-4.98,8.496-4.742
		c4.665,0.277,9.034-0.09,13.596-2.528c9.114-4.878,12.878-14.815,10.942-23.922c-1.769-8.326-6.772-13.051-14.915-15.922
		c-8.577-3.024-17.184-1.173-25.722-2.108c-2.48-0.271-3.584,1.557-3.608,3.935c-0.042,3.794-0.062,7.586-0.064,11.382
		c-0.017,26.014-0.025,52.026-0.038,78.04c0,3.498-0.014,6.996-0.02,10.497C219.77,354.977,211.366,354.977,202.962,354.977z"/>
	<path fill-rule="evenodd" clip-rule="evenodd" fill="#243676" d="M496.16,224.649c8.475-1.534,16.443,0.99,24.058,3.918
		c5.52,2.123,10.52,5.736,15.51,9.045c2.942,1.949,2.803,4.792,0.394,7.302c-3.465,3.615-7.002,7.167-10.569,10.682
		c-2.167,2.132-4.173,2.163-6.714,0.048c-8.303-6.908-18.035-9.871-28.625-7.768c-5.453,1.082-10.142,4.578-12.71,9.897
		c-2.181,4.516,0.771,10.995,7.091,14.198c5.352,2.713,11.086,4.871,16.867,6.496c12.906,3.624,24.793,9.246,34.436,18.501
		c7.703,7.396,10.648,17.065,8.472,27.734c-0.305,1.499-2.84,3.448-4.491,3.601c-4.947,0.46-9.971,0.132-14.964,0.115
		c-4.292-0.017-5.844-2.508-6.175-6.449c-0.609-7.25-3.922-10.979-10.669-13.3c-9.209-3.163-18.25-6.826-27.476-9.938
		c-8.846-2.984-15.788-8.537-21.86-15.324c-6.602-7.38-9.286-16.311-7.287-25.822c1.704-8.119,4.6-16.089,11.142-22.039
		c7.475-6.797,15.947-11.011,26.258-10.902C491.285,224.673,493.721,224.649,496.16,224.649z"/>
	<path fill-rule="evenodd" clip-rule="evenodd" fill="#E01E27" d="M378.557,239.551c0-1.491-0.015-2.981,0.002-4.472
		c0.089-7.48,1.772-8.682,9.335-8.51c11.896,0.271,23.803,0.053,35.706,0.055c5.126,0,10.264-0.162,15.375,0.119
		c3.159,0.172,5.354,2.095,5.445,5.481c0.132,4.989,0.222,9.992-0.035,14.971c-0.176,3.443-2.836,4.271-5.826,4.249
		c-16.104-0.112-32.209-0.245-48.315-0.329c-1.754-0.01-3.508,0.288-5.265,0.367c-4.541,0.205-6.441-1.648-6.46-6.243
		c-0.008-1.896-0.001-3.792-0.001-5.688C378.53,239.551,378.544,239.551,378.557,239.551z"/>
	<path fill-rule="evenodd" clip-rule="evenodd" fill="#E01E27" d="M406.281,304.707c-6.491,0-12.98,0.003-19.47,0
		c-6.315-0.004-8.872-2.555-8.687-8.773c0.112-3.778,0.379-7.555,0.481-11.333c0.104-3.799,2.021-5.828,5.771-5.838
		c12.841-0.036,25.688-0.119,38.527,0.106c5.144,0.089,6.216,1.628,6.78,6.678c0.235,2.098,0.996,4.137,1.531,6.198
		c0.574,2.21,1.459,4.388,1.688,6.635c0.488,4.805-1.044,6.32-5.937,6.333c-6.896,0.023-13.791,0.007-20.686,0.007
		C406.281,304.717,406.281,304.71,406.281,304.707z"/>
	<path fill-rule="evenodd" clip-rule="evenodd" fill="#243676" d="M579.508,304.667c-7.042,0-14.084,0.053-21.126-0.02
		c-4.616-0.05-5.718-1.152-5.817-5.824c-0.103-4.871,0.047-9.749-0.06-14.623c-0.076-3.535,1.506-5.395,5.021-5.404
		c13.27-0.04,26.539-0.043,39.806-0.01c2.779,0.006,4.411,1.291,5,4.249c1.043,5.238,2.694,10.361,3.62,15.616
		c0.771,4.374-0.82,5.97-5.32,6.019c-7.043,0.08-14.084,0.021-21.123,0.021C579.508,304.684,579.508,304.674,579.508,304.667z"/>
</g>
</svg>
